<svg width="20" height="22" viewBox="0 0 20 22" fill="none" xmlns="http://www.w3.org/2000/svg">
<path d="M19 15V18M3 7H1M3 11H1M3 15H1M15 15L7 15M6.8 21H15.8C16.9201 21 17.4802 21 17.908 20.782C18.2843 20.5903 18.5903 20.2843 18.782 19.908C19 19.4802 19 18.9201 19 17.8V4.2C19 3.07989 19 2.51984 18.782 2.09202C18.5903 1.71569 18.2843 1.40973 17.908 1.21799C17.4802 1 16.9201 1 15.8 1H6.8C5.11984 1 4.27976 1 3.63803 1.32698C3.07354 1.6146 2.6146 2.07354 2.32698 2.63803C2 3.27976 2 4.11984 2 5.8V16.2C2 17.8802 2 18.7202 2.32698 19.362C2.6146 19.9265 3.07354 20.3854 3.63803 20.673C4.27976 21 5.11984 21 6.8 21ZM13 9C13 10.1046 12.1046 11 11 11C9.89543 11 9 10.1046 9 9C9 7.89543 9.89543 7 11 7C12.1046 7 13 7.89543 13 9Z" stroke="#C3C3CA" stroke-width="2" stroke-linecap="round" stroke-linejoin="round"/>
</svg>
