<svg width="29" height="25" viewBox="0 0 29 25" fill="none" xmlns="http://www.w3.org/2000/svg">
<path d="M27.5 20.45C27.5 21.95 26.3 23.15 24.65 23.15H4.85C3.35 23.15 2 21.95 2 20.45V4.7C2 3.2 3.2 2 4.85 2H24.65C26.15 2 27.5 3.2 27.5 4.7V20.45Z" stroke="#757581" stroke-width="2.5" stroke-linecap="round" stroke-linejoin="round"/>
<path d="M11.75 14.45H7.7C6.8 14.45 6.2 13.85 6.2 12.95V10.1C6.2 9.19999 6.8 8.59999 7.7 8.59999H11.75C12.65 8.59999 13.25 9.19999 13.25 10.1V12.95C13.25 13.7 12.5 14.45 11.75 14.45Z" stroke="#757581" stroke-width="2.5" stroke-linecap="round" stroke-linejoin="round"/>
</svg>
