<svg width="37" height="24" viewBox="0 0 37 24" fill="none" xmlns="http://www.w3.org/2000/svg">
<path d="M18.001 4C16.3295 2.74418 14.2516 2 12 2C6.47715 2 2 6.47715 2 12C2 17.5228 6.47715 22 12 22C17.3232 22 21.675 17.8407 21.9826 12.5947H13M24.1973 18.878C24.3275 18.9624 24.4606 19.0426 24.5965 19.1184C25.604 19.68 26.7646 20 28 20C31.866 20 35 16.866 35 13C35 9.13401 31.866 6 28 6C26.1605 6 24.4868 6.70951 23.2375 7.86979" stroke="#757581" stroke-width="2.5" stroke-linecap="round" stroke-linejoin="round"/>
</svg>
