<svg width="48" height="48" viewBox="0 0 48 48" fill="none" xmlns="http://www.w3.org/2000/svg">
<path d="M33.2314 36.1104H8.23008C7.55354 36.1104 7 35.5666 7 34.9019V17.5598C7 16.8951 7.55354 16.3513 8.23008 16.3513H33.2314C33.908 16.3513 34.4615 16.8951 34.4615 17.5598V34.9019C34.4615 35.5666 33.908 36.1104 33.2314 36.1104Z" fill="#5CD3D3"/>
<path d="M14.2517 27.1869H10.8636C10.5367 27.1869 10.2692 26.9201 10.2692 26.594V23.9555C10.2692 23.6294 10.5367 23.3626 10.8636 23.3626H14.2517C14.5787 23.3626 14.8461 23.6294 14.8461 23.9555V26.594C14.8461 26.9201 14.5787 27.1869 14.2517 27.1869Z" fill="#FFE06A"/>
<path d="M14.5605 31.2892H10.9734C10.6333 31.2892 10.3549 31.017 10.3549 30.6843V29.8676C10.3549 29.5349 10.6333 29.2627 10.9734 29.2627H14.5605C14.9007 29.2627 15.179 29.5349 15.179 29.8676V30.6843C15.2099 31.017 14.9007 31.2892 14.5605 31.2892Z" fill="#ADE9E9"/>
<path d="M20.5597 31.2892H16.9726C16.6324 31.2892 16.3541 31.017 16.3541 30.6843V29.8676C16.3541 29.5349 16.6324 29.2627 16.9726 29.2627H20.5597C20.8998 29.2627 21.1782 29.5349 21.1782 29.8676V30.6843C21.1782 31.017 20.8998 31.2892 20.5597 31.2892Z" fill="#ADE9E9"/>
<path d="M21.8856 26.4857L26.0112 25.4574L30.3314 26.4857L34.4374 25.4574L38.3534 26.4857V8H21.8856V26.4857Z" fill="#EB79C5"/>
<path d="M26.3113 12.7486H34.4132C34.6606 12.7486 34.8461 12.5671 34.8461 12.3252V11.811C34.8461 11.569 34.6606 11.3876 34.4132 11.3876H26.3113C26.0639 11.3876 25.8784 11.569 25.8784 11.811V12.3252C25.8784 12.5369 26.0948 12.7486 26.3113 12.7486Z" fill="white"/>
<path d="M26.3113 16.8015H31.7229C31.9703 16.8015 32.1558 16.62 32.1558 16.378V15.8639C32.1558 15.6219 31.9703 15.4404 31.7229 15.4404H26.3113C26.0639 15.4404 25.8784 15.6219 25.8784 15.8639V16.378C25.8784 16.5898 26.0948 16.8015 26.3113 16.8015Z" fill="white"/>
<path d="M26.3113 20.8242H33.0526C33.3 20.8242 33.4855 20.6427 33.4855 20.4008V19.8866C33.4855 19.6446 33.3 19.4632 33.0526 19.4632H26.3113C26.0639 19.4632 25.8784 19.6446 25.8784 19.8866V20.4008C25.8784 20.6125 26.0948 20.8242 26.3113 20.8242Z" fill="white"/>
<path d="M38.4953 37.8526C38.4953 39.0321 34.5062 40 29.6203 40C24.7344 40 20.7453 39.0321 20.7453 37.8526C20.7453 37.5501 20.7453 35.7354 20.7453 35.7354C20.7453 35.7354 25.9404 35.7051 29.6203 35.7051C33.3929 35.7051 38.4953 35.7354 38.4953 35.7354C38.4953 35.7354 38.4953 37.5803 38.4953 37.8526Z" fill="#F5C23E"/>
<path d="M29.6203 37.8828C34.5218 37.8828 38.4953 36.9214 38.4953 35.7354C38.4953 34.5494 34.5218 33.5879 29.6203 33.5879C24.7188 33.5879 20.7453 34.5494 20.7453 35.7354C20.7453 36.9214 24.7188 37.8828 29.6203 37.8828Z" fill="#FFE06A"/>
<path d="M41 33.6852C41 34.8647 37.0109 35.8326 32.125 35.8326C27.2391 35.8326 23.25 34.8647 23.25 33.6852C23.25 33.3827 23.25 31.5679 23.25 31.5679C23.25 31.5679 28.4451 31.5377 32.125 31.5377C35.8977 31.5377 41 31.5679 41 31.5679C41 31.5679 41 33.4129 41 33.6852Z" fill="#F5C23E"/>
<path d="M32.125 33.7456C37.0265 33.7456 41 32.7842 41 31.5982C41 30.4122 37.0265 29.4507 32.125 29.4507C27.2235 29.4507 23.25 30.4122 23.25 31.5982C23.25 32.7842 27.2235 33.7456 32.125 33.7456Z" fill="#FFE06A"/>
</svg>
