<svg width="42" height="38" viewBox="0 0 42 38" fill="none" xmlns="http://www.w3.org/2000/svg">
<path d="M18.5631 20.762C18.7365 22.5316 18.8231 23.4599 17.3786 24.9684C15.9051 26.535 12.1781 29.4359 8.36436 31.6407C6.77531 32.569 4.57955 33.7004 2.93272 34.3096C1.71927 34.7447 0.679169 34.9478 0.18801 34.0485C-0.129799 33.4683 0.0146598 32.9461 0.18801 32.482C1.51703 28.8848 5.33073 22.1255 7.81542 17.745C8.07544 17.3099 8.33547 16.8457 8.59549 16.3816C12.467 9.73835 17.5519 1.61563 18.5342 0.310192C18.6787 0.107124 18.9387 -0.0959443 19.1987 0.0491043C19.401 0.165143 19.401 0.397221 19.3721 0.571279C19.3721 0.600289 19.3143 0.832366 19.2854 0.919396C17.6386 7.62064 17.8119 14.2058 18.5631 20.762Z" fill="#0D0721"/>
<path d="M24.1676 22.8217C22.5496 22.0965 21.7118 21.7194 21.1339 19.7177C20.5272 17.658 19.8916 12.9584 19.8916 8.54897C19.8916 6.69235 20.0072 4.22653 20.325 2.51495C20.5561 1.23853 20.9028 0.252197 21.914 0.252197C22.5785 0.252197 22.9541 0.658333 23.2719 1.03546C25.7277 3.99445 29.6281 10.6957 32.1706 15.0471C32.4306 15.4823 32.6906 15.9464 32.9506 16.4106C36.7643 23.0538 41.2426 31.5537 41.8493 33.0622C41.936 33.2943 41.9937 33.6134 41.7626 33.7584C41.5604 33.8744 41.3581 33.7584 41.2426 33.6424C41.2137 33.6134 41.0403 33.4393 40.9825 33.3813C35.9843 28.5947 30.2059 25.4326 24.1676 22.8217Z" fill="#0D0721"/>
<path d="M19.6041 26.6509C21.0487 25.6066 21.7999 25.0844 23.8223 25.5776C25.9025 26.0707 30.2651 27.8693 34.0788 30.0741C35.6679 31.0024 37.7481 32.3368 39.0771 33.4682C40.0594 34.3095 40.7528 35.1218 40.2328 35.9921C39.915 36.5722 39.366 36.6883 38.8749 36.7753C35.0901 37.4135 27.376 37.4715 22.3488 37.5006C21.8288 37.5006 21.3087 37.5006 20.7598 37.5006C13.1035 37.5006 3.56922 37.1234 1.95129 36.9204C1.72015 36.8914 1.40234 36.7753 1.40234 36.4852C1.40234 36.2531 1.60459 36.1371 1.74904 36.0791C1.77794 36.0791 2.00907 35.9921 2.09574 35.963C8.74083 34.0484 14.3169 30.5962 19.6041 26.6509Z" fill="#0D0721"/>
</svg>
