<svg width="24" height="24" viewBox="0 0 24 24" fill="none" xmlns="http://www.w3.org/2000/svg">
<path d="M12.5228 1.33636C12.1805 1.24368 11.8197 1.24368 11.4774 1.33636C11.0801 1.44395 10.7455 1.7066 10.4785 1.91623L10.4039 1.97465L3.54389 7.31012C3.16725 7.6024 2.83544 7.85991 2.58818 8.19421C2.37119 8.48759 2.20954 8.8181 2.11118 9.1695C1.9991 9.56992 1.99955 9.98993 2.00007 10.4667L2.00014 17.8385C2.00012 18.3657 2.00011 18.8204 2.03071 19.195C2.06301 19.5904 2.13433 19.9836 2.32712 20.362C2.61474 20.9264 3.07368 21.3854 3.63817 21.673C4.01655 21.8658 4.40977 21.9371 4.80511 21.9694C5.17968 22 5.63443 22 6.16157 22L8.22329 22C8.34238 22 8.48469 22.0001 8.60997 21.9899C8.75519 21.978 8.96318 21.9475 9.18113 21.8365C9.46337 21.6927 9.69284 21.4632 9.83665 21.181C9.9477 20.963 9.97814 20.755 9.99001 20.6098C10.0002 20.4845 10.0002 20.3423 10.0001 20.2231L10.0001 13.6C10.0001 13.3035 10.0009 13.1412 10.0104 13.0246L10.0116 13.0114L10.0248 13.0103C10.1414 13.0008 10.3036 13 10.6001 13H13.4001C13.6967 13 13.8589 13.0008 13.9755 13.0103L13.9887 13.0114L13.9898 13.0246C13.9994 13.1412 14.0001 13.3035 14.0001 13.6L14.0001 20.2231C14.0001 20.3422 14 20.4845 14.0103 20.6098C14.0221 20.755 14.0526 20.963 14.1636 21.181C14.3074 21.4632 14.5369 21.6927 14.8192 21.8365C15.0371 21.9475 15.2451 21.978 15.3903 21.9899C15.5156 22.0001 15.6578 22 15.7769 22L17.8387 22C18.3658 22 18.8206 22 19.1952 21.9694C19.5905 21.9371 19.9837 21.8658 20.3621 21.673C20.9266 21.3854 21.3855 20.9264 21.6732 20.362C21.866 19.9836 21.9373 19.5904 21.9696 19.195C22.0002 18.8204 22.0002 18.3657 22.0001 17.8386L22.0002 10.4667C22.0007 9.98993 22.0012 9.56992 21.8891 9.1695C21.7907 8.8181 21.6291 8.48759 21.4121 8.19421C21.1648 7.85991 20.833 7.60241 20.4564 7.31013L13.5964 1.97465L13.5218 1.91624C13.2548 1.7066 12.9202 1.44395 12.5228 1.33636Z" fill="#2ACED0"/>
</svg>
