<svg width="42" height="42" viewBox="0 0 42 42" fill="none" xmlns="http://www.w3.org/2000/svg">
<path fill-rule="evenodd" clip-rule="evenodd" d="M23.2 9H30.8C31.9201 9 32.4802 9 32.908 9.21799C33.2843 9.40973 33.5903 9.71569 33.782 10.092C34 10.5198 34 11.0799 34 12.2V25.8C34 26.9201 34 27.4802 33.782 27.908C33.5903 28.2843 33.2843 28.5903 32.908 28.782C32.4802 29 31.9201 29 30.8 29H20V12.2C20 11.0799 20 10.5198 20.218 10.092C20.4097 9.71569 20.7157 9.40973 21.092 9.21799C21.5198 9 22.0799 9 23.2 9ZM25 10C24.4477 10 24 10.4477 24 11C24 11.5523 24.4477 12 25 12H29C29.5523 12 30 11.5523 30 11C30 10.4477 29.5523 10 29 10H25Z" fill="#EBEDF0"/>
<path fill-rule="evenodd" clip-rule="evenodd" d="M25.908 31.782C25.4802 32 24.9201 32 23.8 32L10.2 32C9.0799 32 8.51984 32 8.09202 31.782C7.71569 31.5903 7.40973 31.2843 7.21799 30.908C7 30.4802 7 29.9201 7 28.8V19.2C7 18.0799 7 17.5198 7.21799 17.092C7.40973 16.7157 7.71569 16.4097 8.09202 16.218C8.51984 16 9.0799 16 10.2 16H23.8C24.9201 16 25.4802 16 25.908 16.218C26.2843 16.4097 26.5903 16.7157 26.782 17.092C27 17.5198 27 18.0799 27 19.2V28.8C27 29.9201 27 30.4802 26.782 30.908C26.5903 31.2843 26.2843 31.5903 25.908 31.782ZM12 22C11.4477 22 11 22.4477 11 23V24C11 24.5523 11.4477 25 12 25H14C14.5523 25 15 24.5523 15 24V23C15 22.4477 14.5523 22 14 22H12Z" fill="#C3C3CA"/>
</svg>
