<svg width="30" height="30" viewBox="0 0 30 30" fill="none" xmlns="http://www.w3.org/2000/svg">
<path d="M11.3803 11.8532C12.0763 13.3028 13.0251 14.6615 14.2266 15.8631C15.4282 17.0646 16.7869 18.0134 18.2365 18.7094C18.3612 18.7693 18.4235 18.7992 18.5024 18.8222C18.7828 18.904 19.127 18.8453 19.3644 18.6752C19.4313 18.6274 19.4884 18.5702 19.6027 18.4559C19.9523 18.1063 20.1271 17.9315 20.3029 17.8172C20.9658 17.3862 21.8204 17.3862 22.4833 17.8172C22.6591 17.9315 22.8339 18.1063 23.1835 18.4559L23.3783 18.6508C23.9098 19.1822 24.1755 19.448 24.3198 19.7333C24.6069 20.3009 24.6069 20.9712 24.3198 21.5387C24.1755 21.8241 23.9098 22.0898 23.3783 22.6213L23.2207 22.7789C22.6911 23.3085 22.4263 23.5733 22.0662 23.7756C21.6667 24 21.0462 24.1614 20.588 24.16C20.1751 24.1588 19.8928 24.0787 19.3284 23.9185C16.295 23.0575 13.4326 21.433 11.0447 19.045C8.65668 16.6571 7.03221 13.7947 6.17124 10.7613C6.01103 10.1969 5.93092 9.91464 5.9297 9.5017C5.92833 9.04347 6.08969 8.42298 6.31411 8.02348C6.51636 7.66345 6.78117 7.39863 7.3108 6.86901L7.46843 6.71138C7.99987 6.17993 8.2656 5.91421 8.55098 5.76987C9.11854 5.4828 9.7888 5.4828 10.3564 5.76987C10.6417 5.91421 10.9075 6.17993 11.4389 6.71138L11.6338 6.90625C11.9834 7.25585 12.1582 7.43065 12.2725 7.60643C12.7035 8.26932 12.7035 9.1239 12.2725 9.78679C12.1582 9.96257 11.9834 10.1374 11.6338 10.487C11.5195 10.6013 11.4623 10.6584 11.4145 10.7253C11.2445 10.9627 11.1858 11.307 11.2675 11.5873C11.2905 11.6662 11.3204 11.7285 11.3803 11.8532Z" stroke="#02BDBF" stroke-width="2" stroke-linecap="round" stroke-linejoin="round"/>
</svg>
