<svg width="30" height="30" viewBox="0 0 30 30" fill="none" xmlns="http://www.w3.org/2000/svg">
<path d="M21.5051 17.7454C21.8758 17.6666 22.2121 17.4725 22.4657 17.1908C22.754 16.8706 22.884 16.3852 23.1442 15.4143L24.4448 10.5605C24.7049 9.58967 24.835 9.10424 24.7454 8.6828C24.6666 8.31208 24.4725 7.97583 24.1908 7.72223C23.8706 7.43393 23.3852 7.30386 22.4143 7.04372L17.5605 5.74315C16.5897 5.48301 16.1042 5.35294 15.6828 5.44252C15.3121 5.52132 14.9758 5.71545 14.7222 5.9971C14.4339 6.31729 14.3039 6.80272 14.0437 7.77357M10.6967 24.5202L16.1059 23.0708C17.1878 22.7809 17.7288 22.6359 18.0856 22.3146C18.3995 22.032 18.6158 21.6573 18.7037 21.2442C18.8035 20.7745 18.6585 20.2335 18.3686 19.1516L16.9192 13.7424C16.6293 12.6605 16.4844 12.1195 16.1631 11.7627C15.8805 11.4488 15.5058 11.2325 15.0926 11.1447C14.623 11.0448 14.082 11.1898 13.0001 11.4797L7.59088 12.9291C6.50894 13.219 5.96797 13.3639 5.61114 13.6852C5.29727 13.9678 5.08092 14.3425 4.99311 14.7557C4.89328 15.2253 5.03823 15.7663 5.32814 16.8482L6.77752 22.2574C7.06743 23.3394 7.21238 23.8803 7.53367 24.2372C7.81628 24.551 8.191 24.7674 8.60413 24.8552C9.0738 24.955 9.61477 24.8101 10.6967 24.5202ZM11.1293 17.5922L10.1783 17.9859C10.0781 18.0273 10.028 18.0481 10.0101 18.0773C9.99454 18.1027 9.99201 18.1326 10.0032 18.1586C10.0162 18.1885 10.0626 18.2114 10.1553 18.257L11.0356 18.6903C11.0631 18.7039 11.0768 18.7106 11.0871 18.7203C11.0962 18.7288 11.1033 18.739 11.108 18.7502C11.1133 18.7629 11.1143 18.7773 11.1164 18.8062L11.1845 19.7332C11.1917 19.831 11.1953 19.8799 11.2193 19.903C11.2403 19.9231 11.2706 19.9331 11.3018 19.93C11.3377 19.9266 11.3783 19.8921 11.4594 19.8233L12.229 19.1706C12.2529 19.1502 12.2649 19.14 12.2787 19.1336C12.2909 19.1279 12.3041 19.1244 12.3175 19.1232C12.3326 19.1219 12.3481 19.1247 12.3791 19.1303L13.3719 19.3109C13.4766 19.3299 13.5289 19.3394 13.5617 19.3245C13.5903 19.3115 13.6116 19.2877 13.6196 19.2598C13.6289 19.2278 13.6076 19.1836 13.5649 19.0954L13.1604 18.2586C13.1478 18.2325 13.1415 18.2194 13.1397 18.2058C13.1382 18.1937 13.1392 18.1814 13.1428 18.1694C13.1469 18.1559 13.1554 18.1432 13.1724 18.1178L13.7181 17.3024C13.7756 17.2164 13.8044 17.1735 13.8006 17.1411C13.7973 17.113 13.7802 17.0884 13.754 17.0741C13.7239 17.0578 13.6701 17.0649 13.5627 17.079L12.5423 17.2136C12.5105 17.2178 12.4947 17.2199 12.4798 17.2179C12.4667 17.2161 12.4542 17.212 12.443 17.2058C12.4304 17.1988 12.4202 17.1881 12.3998 17.1668L11.744 16.4823C11.6749 16.4101 11.6403 16.374 11.6052 16.369C11.5746 16.3646 11.5427 16.3731 11.5185 16.3922C11.4906 16.4142 11.4787 16.4627 11.4549 16.5597L11.2293 17.4805C11.2223 17.5091 11.2187 17.5234 11.2113 17.5358C11.2048 17.5468 11.196 17.5566 11.1855 17.5647C11.1736 17.5739 11.1588 17.58 11.1293 17.5922Z" stroke="#02BDBF" stroke-width="2" stroke-linecap="round" stroke-linejoin="round"/>
</svg>
