<svg width="30" height="30" viewBox="0 0 30 30" fill="none" xmlns="http://www.w3.org/2000/svg">
<path d="M11 6H10.8C9.11984 6 8.27976 6 7.63803 6.32698C7.07354 6.6146 6.6146 7.07354 6.32698 7.63803C6 8.27976 6 9.11984 6 10.8V11M11 24H10.8C9.11984 24 8.27976 24 7.63803 23.673C7.07354 23.3854 6.6146 22.9265 6.32698 22.362C6 21.7202 6 20.8802 6 19.2V19M24 11V10.8C24 9.11984 24 8.27976 23.673 7.63803C23.3854 7.07354 22.9265 6.6146 22.362 6.32698C21.7202 6 20.8802 6 19.2 6H19M24 19V19.2C24 20.8802 24 21.7202 23.673 22.362C23.3854 22.9265 22.9265 23.3854 22.362 23.673C21.7202 24 20.8802 24 19.2 24H19M13.5 15H13.51M11.6 19H18.4C18.9601 19 19.2401 19 19.454 18.891C19.6422 18.7951 19.7951 18.6422 19.891 18.454C20 18.2401 20 17.9601 20 17.4V12.6C20 12.0399 20 11.7599 19.891 11.546C19.7951 11.3578 19.6422 11.2049 19.454 11.109C19.2401 11 18.9601 11 18.4 11H11.6C11.0399 11 10.7599 11 10.546 11.109C10.3578 11.2049 10.2049 11.3578 10.109 11.546C10 11.7599 10 12.0399 10 12.6V17.4C10 17.9601 10 18.2401 10.109 18.454C10.2049 18.6422 10.3578 18.7951 10.546 18.891C10.7599 19 11.0399 19 11.6 19Z" stroke="#888894" stroke-width="2" stroke-linecap="round" stroke-linejoin="round"/>
</svg>
