<svg width="30" height="30" viewBox="0 0 30 30" fill="none" xmlns="http://www.w3.org/2000/svg">
<path d="M21.8 23V24V23ZM8.2 23L8.2 22H8.2V23ZM5.21799 8.09201L6.10899 8.546L6.10899 8.546L5.21799 8.09201ZM6.09202 7.21798L5.63803 6.32697L5.63803 6.32697L6.09202 7.21798ZM6.09202 22.782L6.54601 21.891H6.54601L6.09202 22.782ZM5.21799 21.908L4.32698 22.362L5.21799 21.908ZM24.782 21.908L25.673 22.362L24.782 21.908ZM23.908 22.782L24.362 23.673L23.908 22.782ZM13.5 7.99999C14.0523 7.99999 14.5 7.55228 14.5 6.99999C14.5 6.44771 14.0523 5.99999 13.5 5.99999V7.99999ZM26 16.5C26 15.9477 25.5523 15.5 25 15.5C24.4477 15.5 24 15.9477 24 16.5H26ZM9 14V13C8.44772 13 8 13.4477 8 14H9ZM12 14H13C13 13.4477 12.5523 13 12 13V14ZM12 15V16C12.5523 16 13 15.5523 13 15H12ZM9 15H8C8 15.5523 8.44772 16 9 16V15ZM17.2407 5.84921C16.8813 6.26853 16.9299 6.89983 17.3492 7.25926C17.7685 7.61868 18.3998 7.57011 18.7593 7.15079L17.2407 5.84921ZM18.9999 14.0002L17.9999 14.0002L17.9999 15.0002L19 15.0002L18.9999 14.0002ZM22.0001 15C22.5523 15 23 14.5522 23 13.9999C23 13.4476 22.5522 13 21.9999 13L22.0001 15ZM20 11C20 10.4477 19.5523 10 19 9.99999C18.4477 9.99997 18 10.4477 18 11L20 11ZM21.8 23V22L8.2 22L8.2 23L8.2 24L21.8 24V23ZM5 19.8H6V10.2H5H4V19.8H5ZM5 10.2H6C6 9.62344 6.00078 9.25116 6.02393 8.96783C6.04612 8.69616 6.0838 8.59544 6.10899 8.546L5.21799 8.09201L4.32698 7.63802C4.13419 8.0164 4.06287 8.40962 4.03057 8.80496C3.99922 9.18863 4 9.65644 4 10.2H5ZM8.2 6.99999V5.99999C7.65645 5.99999 7.18864 5.99921 6.80497 6.03056C6.40963 6.06286 6.01641 6.13418 5.63803 6.32697L6.09202 7.21798L6.54601 8.10898C6.59545 8.08379 6.69617 8.04611 6.96784 8.02392C7.25117 8.00077 7.62345 7.99999 8.2 7.99999V6.99999ZM5.21799 8.09201L6.10899 8.546C6.20487 8.35784 6.35785 8.20486 6.54601 8.10898L6.09202 7.21798L5.63803 6.32697C5.07354 6.61459 4.6146 7.07353 4.32698 7.63802L5.21799 8.09201ZM8.2 23V22C7.62345 22 7.25117 21.9992 6.96784 21.9761C6.69617 21.9539 6.59545 21.9162 6.54601 21.891L6.09202 22.782L5.63803 23.673C6.01641 23.8658 6.40963 23.9371 6.80497 23.9694C7.18864 24.0008 7.65645 24 8.2 24V23ZM5 19.8H4C4 20.3435 3.99922 20.8113 4.03057 21.195C4.06287 21.5904 4.13419 21.9836 4.32698 22.362L5.21799 21.908L6.10899 21.454C6.0838 21.4045 6.04612 21.3038 6.02393 21.0322C6.00078 20.7488 6 20.3765 6 19.8H5ZM6.09202 22.782L6.54601 21.891C6.35785 21.7951 6.20487 21.6421 6.10899 21.454L5.21799 21.908L4.32698 22.362C4.6146 22.9264 5.07354 23.3854 5.63803 23.673L6.09202 22.782ZM25 19.8H24C24 20.3765 23.9992 20.7488 23.9761 21.0322C23.9539 21.3038 23.9162 21.4045 23.891 21.454L24.782 21.908L25.673 22.362C25.8658 21.9836 25.9371 21.5904 25.9694 21.195C26.0008 20.8113 26 20.3435 26 19.8H25ZM21.8 23V24C22.3436 24 22.8114 24.0008 23.195 23.9694C23.5904 23.9371 23.9836 23.8658 24.362 23.673L23.908 22.782L23.454 21.891C23.4045 21.9162 23.3038 21.9539 23.0322 21.9761C22.7488 21.9992 22.3766 22 21.8 22V23ZM24.782 21.908L23.891 21.454C23.7951 21.6421 23.6422 21.7951 23.454 21.891L23.908 22.782L24.362 23.673C24.9265 23.3854 25.3854 22.9264 25.673 22.362L24.782 21.908ZM8.2 6.99999V7.99999H13.5V6.99999V5.99999H8.2V6.99999ZM25 16.5H24V19.8H25H26V16.5H25ZM9 14V15H12V14V13H9V14ZM12 14H11V15H12H13V14H12ZM12 15V14H9V15V16H12V15ZM9 15H10V14H9H8V15H9ZM18 6.5L18.7593 7.15079C19.9353 5.77875 21.489 6.11378 21.9749 6.85876C22.2191 7.23331 22.375 7.91737 21.9273 9.00101C21.4734 10.0997 20.4173 11.5374 18.3642 13.2283L18.9999 14.0002L19.6356 14.7721C21.8326 12.9628 23.1515 11.2755 23.7757 9.76474C24.4062 8.23895 24.3433 6.82922 23.6501 5.76625C22.261 3.6362 19.0647 3.72123 17.2407 5.84921L18 6.5ZM22 14L21.9999 13L18.9999 13.0002L18.9999 14.0002L19 15.0002L22.0001 15L22 14ZM18.9999 14.0002L19.9999 14.0002L20 11L19 11L18 11L17.9999 14.0002L18.9999 14.0002Z" fill="#02BDBF"/>
</svg>
